<?xml version="1.0" encoding="utf-8"?>
<!-- Generator: Adobe Illustrator 27.6.1, SVG Export Plug-In . SVG Version: 6.00 Build 0)  -->
<svg version="1.1" id="Layer_1" xmlns="http://www.w3.org/2000/svg" xmlns:xlink="http://www.w3.org/1999/xlink" x="0px" y="0px"
	 viewBox="0 0 704.1 189.3" style="enable-background:new 0 0 704.1 189.3;" xml:space="preserve">
<style type="text/css">
	.st0{fill:none;stroke:#FFFFFF;stroke-miterlimit:10;}
	.st1{fill:#FFFFFF;}
</style>
<path class="st0" d="M107.7,136.9v11c-6.8,0-17.6-0.2-27.2-5.7c-2-1.1-3.8-2.5-5.5-3.9c0.2-0.2,0.3-0.3,0.5-0.5l0.1-0.1
	c0.1-0.2,0.3-0.3,0.4-0.5c0.1-0.1,0.1-0.1,0.2-0.2c0.1-0.1,0.2-0.2,0.3-0.4c0.1-0.1,0.1-0.1,0.2-0.2c0.1-0.1,0.2-0.2,0.3-0.3
	c0.1-0.1,0.1-0.1,0.2-0.2c0.1-0.1,0.2-0.2,0.3-0.3c0.1-0.1,0.1-0.2,0.2-0.2c0.1-0.1,0.2-0.2,0.3-0.3c0.1-0.1,0.1-0.2,0.2-0.2
	c0.1-0.1,0.2-0.3,0.3-0.4c0-0.1,0.1-0.1,0.2-0.2c0.1-0.2,0.2-0.3,0.4-0.5c0,0,0-0.1,0.1-0.1c0.1-0.2,0.3-0.4,0.4-0.6
	c0-0.1,0.1-0.1,0.1-0.2c0.1-0.1,0.2-0.3,0.3-0.4c0-0.1,0.1-0.2,0.2-0.2c0.1-0.1,0.2-0.3,0.2-0.4c0.1-0.1,0.1-0.2,0.2-0.3
	c0.1-0.1,0.2-0.3,0.2-0.4c0.1-0.1,0.1-0.2,0.2-0.3c0.1-0.1,0.1-0.3,0.2-0.4c0.1-0.1,0.1-0.2,0.2-0.3c0.1-0.1,0.2-0.3,0.2-0.4
	c0-0.1,0.1-0.2,0.1-0.3c0,0,0-0.1,0-0.1c1.3,1.3,2.8,2.4,4.4,3.3C93,136.8,101.7,136.9,107.7,136.9z"/>
<path class="st0" d="M85.7,101.9v0.7c0,10-1.7,18.4-5,25.2l0,0.1c-0.1,0.1-0.1,0.2-0.2,0.3c-1.9,3.7-4.3,7-7.1,9.6
	c-1.8,1.7-3.9,3.2-6.1,4.5c-9.5,5.5-20.4,5.7-27.2,5.7v-11c6,0,14.6-0.2,21.7-4.2c1.6-0.9,3.1-2.1,4.4-3.3l0,0l0.8-0.8
	c1.4-1.6,2.7-3.4,3.7-5.4c2.4-4.8,3.7-10.9,4-18.3c0-0.8,0-1.5,0-2.3v-0.7H85.7z"/>
<path class="st0" d="M107.7,89.3v11H73.1v2.2c0,8.2-1.3,14.9-3.8,19.9c-0.1,0.2-0.2,0.3-0.3,0.5c0,0,0,0.1-0.1,0.1
	c-0.1,0.2-0.2,0.3-0.3,0.5c0,0,0,0.1,0,0.1c-0.1,0.2-0.2,0.3-0.3,0.4c0,0,0,0,0,0.1c-0.1,0.2-0.2,0.3-0.3,0.5c0,0,0,0.1-0.1,0.1
	c-0.1,0.2-0.2,0.3-0.3,0.5c0,0,0,0,0,0c-0.1,0.1-0.2,0.3-0.3,0.4c0,0,0,0.1-0.1,0.1c-0.1,0.1-0.2,0.3-0.3,0.4c0,0,0,0-0.1,0.1
	c-0.1,0.1-0.2,0.2-0.3,0.4c0,0,0,0,0,0c-3-6.6-4.5-14.7-4.5-24.1V54.2h11v35.1H107.7z"/>
<rect x="87.2" y="41.6" class="st0" width="20.4" height="11"/>
<polygon class="st0" points="85.7,41.6 85.7,87.7 74.7,87.7 74.7,52.6 40.1,52.6 40.1,41.6 "/>
<g>
	<g>
		<path class="st1" d="M157.2,40.3v31.3c0,8-6.6,14.6-14.7,14.6c-7.5,0-14.4-6-14.5-14.4v-4.2h8.3v4.2c0.1,4,2.7,6.5,6.3,6.5
			s6.3-2.5,6.3-6.8V40.3H157.2z"/>
		<path class="st1" d="M201.9,68.4c0,9.9-8,17.9-17.9,17.9c-9.9,0-17.9-8-17.9-17.9V40.3h8.4v28.1c0,5.3,4.2,9.5,9.5,9.5
			c5.3,0,9.5-4.2,9.5-9.5V40.3h8.4V68.4z"/>
		<path class="st1" d="M209.6,70c0,0,2.6,3,6.5,5.4c2.4,1.5,5.3,2.8,8.4,2.8c4.6,0,7.1-2.7,7.1-5.4c0-2.7-1.9-4.9-5.6-5.8l-5-1.3
			c-7.3-1.8-11.8-6.5-11.8-12.9c0-8.2,6.4-12.9,15.4-12.9c7.6,0,12.9,4.8,12.9,4.8v10.2c0,0-2.3-2.8-5.7-4.8
			c-2.1-1.3-4.5-2.2-7.2-2.2c-4.9,0-6.8,2.4-6.8,5c0,2,1.1,3.9,4.6,4.8l4.9,1.2c8.8,2.2,13,6.6,13,13.7c0,8.1-6.6,13.6-15.6,13.6
			c-8.9,0-14.9-6.1-14.9-6.1V70z"/>
		<path class="st1" d="M277.1,48.6h-13.7v37.2H255V48.6h-13.7v-8.4h35.8V48.6z"/>
		<path class="st1" d="M139.9,112.2v10.3h21v8.4h-21v10.3h23.4v8.4h-31.8v-45.6h31.8v8.3h-0.1v0.1H139.9z"/>
		<path class="st1" d="M209.9,149.4h-9.7l-20.3-32v32h-8.4v-45.6h9.8l20.2,32v-32h8.4V149.4z"/>
		<path class="st1" d="M250.5,112.2h-13.7v37.2h-8.4v-37.2h-13.7v-8.4h35.8V112.2z"/>
		<path class="st1" d="M263.1,112.2v10.3h21v8.4h-21v10.3h23.4v8.4h-31.8v-45.6h31.8v8.3h-0.1v0.1H263.1z"/>
		<path class="st1" d="M326.6,149.4h-9.4l-8.2-16.2h-7.5v16.2h-8.4v-45.6h18.7c7.3,0,14.2,6.9,14.2,14.8c0,5.7-3.7,10.8-8.5,13.2
			L326.6,149.4z M301.6,124.8h10.3c3.3,0,5.9-3,5.9-6.3c0-3.4-2.6-6.4-5.9-6.4h-10.3V124.8z"/>
		<path class="st1" d="M364.6,112.2h-13.7v37.2h-8.4v-37.2h-13.7v-8.4h35.8V112.2z"/>
		<path class="st1" d="M404.7,149.4h-9.1l-4.5-11.7h-17.5l-4.5,11.7h-9.1l17.7-45.6h9.1L404.7,149.4z M388.1,130l-5.7-14.7
			l-5.7,14.7H388.1z"/>
		<path class="st1" d="M417.8,149.4h-8.4v-45.6h8.4V149.4z"/>
		<path class="st1" d="M465.9,149.4h-9.7l-20.3-32v32h-8.4v-45.6h9.8l20.2,32v-32h8.4V149.4z"/>
		<path class="st1" d="M525.4,149.4H517v-33.1l-12.2,33.1h-8.5l-12-32.9v32.9H476v-45.6h12.1l12.5,34.3l12.5-34.3h12.2V149.4z"/>
		<path class="st1" d="M543.7,112.2v10.3h21v8.4h-21v10.3h23.4v8.4h-31.8v-45.6h31.8v8.3H567v0.1H543.7z"/>
		<path class="st1" d="M613.7,149.4H604l-20.3-32v32h-8.4v-45.6h9.8l20.2,32v-32h8.4V149.4z"/>
		<path class="st1" d="M654.2,112.2h-13.7v37.2h-8.4v-37.2h-13.7v-8.4h35.8V112.2z"/>
	</g>
</g>
</svg>
