<svg xmlns="http://www.w3.org/2000/svg" xmlns:xlink="http://www.w3.org/1999/xlink" viewBox="0 0 503.19 123.08"><defs><style>.cls-1{fill:none;}.cls-2{clip-path:url(#clip-path);}</style><clipPath id="clip-path" transform="translate(-181.7 -231.1)"><rect class="cls-1" width="841.89" height="595.28"/></clipPath></defs><g id="Layer_2" data-name="Layer 2"><g id="Layer_5" data-name="Layer 5"><g id="KILROY_basic_black_RGB"><g class="cls-2"><g class="cls-2"><path d="M254.56,287.86l13.08,64.9H234.4l-9.2-47h-.35l-10.79,47H181.7l27.59-120.25h32.36l-9.9,43.33h.53l27.41-43.33h32.53Zm145.93,37.32-6.37,27.58H324l27.59-120.25h32.93l-21.79,92.67Zm103.24-63.49c0-20.51-13.26-29.18-36.07-29.18H432.11L404.53,352.76h32.53l9.91-43.5H451l5.13,43.5h33.42l-8.66-51.28a45.71,45.71,0,0,0,22.81-39.79m-47,23.52h-4.07l6-26.17h4.06c5.66,0,7.78,4.07,7.78,9.37,0,8.14-5,16.8-13.79,16.8M558.25,231.1c-20.69,0-37.84,10.79-42.8,32.18l-12,51.64c-5.31,22.46,7.78,39.26,33.24,39.26,18.57,0,37.67-9.2,43-32.19l12-51.63c5-21.22-6.54-39.26-33.42-39.26m1.94,34.66-12.37,53.76c-1.24,5.13-5.13,7.07-8,7.07-2.66,0-6.19-1.77-5-7.07l12.37-53.76c1.24-5.13,4.78-7.07,8-7.07,2.83,0,6.19,1.76,5,7.07M684.9,232.51l-43.33,78.87L632,352.76H599.49l9.37-41.2-7.08-79.05H634v40.68l18-40.68Zm-347.86,0H304.68L298.59,259H331ZM296.6,267.74l-19.51,85h32.36l19.51-85Z" transform="translate(-181.7 -231.1)"/></g></g></g></g></g></svg>