<svg xmlns="http://www.w3.org/2000/svg" xmlns:xlink="http://www.w3.org/1999/xlink" viewBox="0 0 503.19 174.25"><defs><style>.cls-1{fill:none;}.cls-2{clip-path:url(#clip-path);}.cls-3{fill:#ff3c00;}</style><clipPath id="clip-path" transform="translate(-181.7 -231.1)"><rect class="cls-1" width="841.89" height="595.28"/></clipPath></defs><g id="Layer_2" data-name="Layer 2"><g id="Layer_5" data-name="Layer 5"><g id="KILROY_i_down01_orange_RGB"><g class="cls-2"><g class="cls-2"><path class="cls-3" d="M254.56,287.86l13.08,64.9H234.4l-9.2-47h-.35l-10.79,47H181.7l27.59-120.24h32.36l-9.9,43.32h.53l27.41-43.32h32.53Zm108.12,37.32,21.79-92.66H351.54L324,352.76h70.17l6.37-27.58Zm118.24-23.7,8.66,51.28H456.16L451,309.26H447l-9.91,43.5H404.53l27.58-120.24h35.54c22.82,0,36.08,8.66,36.08,29.17a45.71,45.71,0,0,1-22.81,39.79m-10.44-33.07c0-5.3-2.12-9.37-7.78-9.37h-4.06l-6,26.17h4.07c8.84,0,13.79-8.66,13.79-16.8m121.19,1.95-12,51.63c-5.31,23-24.41,32.19-43,32.19-25.46,0-38.55-16.8-33.24-39.26l12-51.64c5-21.39,22.11-32.18,42.8-32.18,26.88,0,38.37,18,33.42,39.26m-36.43-11.67c-3.18,0-6.72,1.94-8,7.07l-12.37,53.76c-1.24,5.3,2.29,7.07,5,7.07,2.83,0,6.72-1.94,8-7.07l12.37-53.76c1.24-5.31-2.12-7.07-5-7.07M652,232.52l-18,40.67V232.52H601.78l7.08,79-9.37,41.2H632l9.55-41.38,43.33-78.86Z" transform="translate(-181.7 -231.1)"/><path class="cls-3" d="M623.64,311.63H591.28l6.09-26.53h32.36Zm-34.35,8.7-19.51,85h32.36l19.51-85Z" transform="translate(-181.7 -231.1)"/></g></g></g></g></g></svg>